<?xml version="1.0" encoding="UTF-8" standalone="no"?>
<!-- Created with Inkscape (http://www.inkscape.org/) -->

<svg
   width="326.65933mm"
   height="155.72897mm"
   viewBox="0 0 326.65933 155.72897"
   version="1.1"
   id="svg1"
   xml:space="preserve"
   xmlns:inkscape="http://www.inkscape.org/namespaces/inkscape"
   xmlns:sodipodi="http://sodipodi.sourceforge.net/DTD/sodipodi-0.dtd"
   xmlns="http://www.w3.org/2000/svg"
   xmlns:svg="http://www.w3.org/2000/svg"><sodipodi:namedview
     id="namedview1"
     pagecolor="#ffffff"
     bordercolor="#000000"
     borderopacity="0.25"
     inkscape:showpageshadow="2"
     inkscape:pageopacity="0.0"
     inkscape:pagecheckerboard="0"
     inkscape:deskcolor="#d1d1d1"
     inkscape:document-units="mm"><inkscape:page
       x="0"
       y="0"
       width="326.65933"
       height="155.72896"
       id="page2"
       margin="0"
       bleed="0" /></sodipodi:namedview><defs
     id="defs1" /><g
     inkscape:label="Layer 1"
     inkscape:groupmode="layer"
     id="layer1"
     transform="translate(6.2186995,-167.33484)"><path
       d="m 190.52149,229.4661 q -0.25429,-3.30592 -2.88211,-5.00126 -2.54299,-1.69535 -7.71382,-1.69535 -4.06881,0 -6.69658,1.52581 -2.54302,1.52581 -2.54302,4.32313 0,1.86488 0.59336,3.05162 0.59336,1.10196 2.11919,1.94965 1.61057,0.7629 4.66219,1.61057 l 8.05289,2.11918 q 6.01848,1.61058 9.91779,3.39069 3.98404,1.69535 6.69658,5.17079 2.71257,3.3907 2.71257,8.98534 0,5.67939 -2.88209,9.91776 -2.88209,4.23836 -8.47673,6.61184 -5.50988,2.37349 -13.22369,2.37349 -6.61185,0 -12.29125,-1.86488 -5.59462,-1.94965 -9.15486,-6.01847 -3.47545,-4.1536 -3.47545,-10.25684 v -0.42383 h 12.96939 v 0.16953 q 0,4.32313 3.56024,6.27279 3.64497,1.86487 9.15484,1.86487 4.66219,0 7.79859,-1.61059 3.13638,-1.69534 3.13638,-5.00127 0,-2.88208 -2.2887,-4.74696 -2.28872,-1.86488 -7.71382,-3.30592 l -11.61312,-3.13639 q -13.05416,-3.47545 -13.05416,-15.42762 0,-5.67941 3.05161,-9.66348 3.1364,-4.06882 8.22241,-6.10323 5.17084,-2.03442 11.27405,-2.03442 6.44233,0 11.61312,1.86488 5.17082,1.7801 8.22243,5.59465 3.13639,3.81452 3.13639,9.49392 z"
       id="text5"
       style="font-weight:bold;font-size:326.178px;line-height:1;font-family:JioType;-inkscape-font-specification:'JioType Bold';letter-spacing:-0.72px;word-spacing:0px;fill:#000000;stroke-width:77.4924;stroke-linecap:square;stroke-linejoin:round;paint-order:stroke fill markers"
       aria-label="S" /><path
       d="m 228.43031,228.61843 h 8.56148 v 8.05287 h -8.56148 v 19.32695 c 0,2.03441 0.19779,3.61673 0.59336,4.74696 0.39559,1.07371 0.98895,1.83662 1.7801,2.28871 0.84769,0.39559 3.01393,0.67117 4.53373,0.57025 1.05057,-0.0698 3.05433,-0.80511 3.05433,-0.80511 v 9.23964 c -1.6388,0.50861 -4.67768,1.1673 -6.82513,1.1673 -4.85999,0 -8.61801,-1.18674 -11.27406,-3.56023 -2.59953,-2.43 -3.8993,-6.47057 -3.8993,-12.12171 V 236.6713 h -8.09397 v -8.05287 h 8.09397 v -13.13892 h 12.03697 z"
       id="text4"
       style="font-weight:bold;font-size:326.178px;line-height:1;font-family:JioType;-inkscape-font-specification:'JioType Bold';letter-spacing:-0.72px;word-spacing:0px;fill:#000000;stroke-width:77.4924;stroke-linecap:square;stroke-linejoin:round;paint-order:stroke fill markers"
       aria-label="t"
       sodipodi:nodetypes="ccccsccaccscsccccccc" /><path
       d="m 270.94766,243.70699 q 0,-4.32313 -1.69534,-6.27277 -1.61055,-2.03442 -5.67941,-2.03442 -3.56022,0 -5.4251,1.2715 -1.86486,1.27152 -2.20394,3.98407 h -11.95216 q 0.33908,-6.44231 5.67937,-9.833 5.34035,-3.47545 14.49521,-3.47545 9.74823,0 14.24092,4.1536 4.57742,4.1536 4.57742,13.05415 v 27.88842 h -10.8502 l -0.67816,-5.6794 h -0.16954 q -1.44104,2.96682 -4.9165,4.91648 -3.39066,1.94964 -8.56148,1.94964 -4.57744,0 -8.05288,-1.61056 -3.39069,-1.61059 -5.25556,-4.74697 -1.8649,-3.13639 -1.8649,-7.54428 0,-7.37476 5.59465,-10.85021 5.6794,-3.47545 16.19054,-3.47545 h 6.52706 z m -4.91649,8.8158 q -5.50987,0 -8.39193,1.44104 -2.88209,1.44104 -2.88209,4.83172 0,2.96686 1.78007,4.49267 1.86493,1.44104 5.00128,1.44104 2.71257,0 4.83173,-1.10196 2.20395,-1.10199 3.39071,-3.13639 1.18672,-2.11918 1.18672,-5.08604 v -2.88208 z"
       id="text3"
       style="font-weight:bold;font-size:326.178px;line-height:1;font-family:JioType;-inkscape-font-specification:'JioType Bold';letter-spacing:-0.72px;word-spacing:0px;fill:#000000;stroke-width:77.4924;stroke-linecap:square;stroke-linejoin:round;paint-order:stroke fill markers"
       aria-label="a" /><path
       d="m 317.81479,239.12957 q -0.59338,-0.16954 -1.52582,-0.25431 -0.93242,-0.16953 -2.20392,-0.16953 -6.01851,0 -9.07011,3.81452 -2.96685,3.81452 -2.96685,10.17208 v 19.75076 h -12.03697 v -43.82466 h 11.44362 v 8.13766 h 0.16951 q 1.52579,-4.23837 4.83175,-6.78138 3.39068,-2.54301 7.79855,-2.54301 2.03442,0 3.56024,0.42382 z"
       id="text2"
       style="font-weight:bold;font-size:326.178px;line-height:1;font-family:JioType;-inkscape-font-specification:'JioType Bold';letter-spacing:-0.72px;word-spacing:0px;fill:#000000;stroke-width:77.4924;stroke-linecap:square;stroke-linejoin:round;paint-order:stroke fill markers"
       aria-label="r" /><g
       id="g5"
       transform="matrix(0.25995641,0,0,0.25995641,-233.55729,3.1630545)"><path
         class="cls-1"
         d="M 1172.24,640.35088 A 288.89914,288.89914 0 1 0 1461.1391,929.12017 288.76929,288.76929 0 0 0 1172.24,640.35088"
         id="path1"
         style="fill:#d7008c;fill-opacity:1;stroke-width:12.9842" /><path
         class="cls-2"
         d="m 1087.5828,814.59925 h -9.3487 c -18.1779,0 -28.1757,10.25755 -28.1757,30.90247 v 99.32937 c 0,25.96846 -8.6995,34.53805 -28.9549,34.53805 a 48.561023,48.561023 0 0 1 -38.95267,-19.60618 33.369473,33.369473 0 0 0 -21.94335,33.23963 c 0,26.61771 24.92973,42.97781 71.15362,42.97781 56.2217,0 85.6959,-28.3056 85.6959,-90.11057 V 845.50172 c 0,-20.64492 -9.868,-30.90247 -28.825,-30.90247 m 86.9943,50.11914 h -6.6219 c -16.3601,0 -28.5653,7.66069 -28.5653,30.90247 v 106.34084 c 0,23.6313 11.9455,31.0323 29.2145,31.0323 h 6.622 c 16.2302,0 27.9161,-8.0502 27.9161,-31.0323 V 895.62086 c 0,-23.89099 -11.2963,-30.90247 -28.5654,-30.90247 m -3.6355,-77.12634 a 29.733889,29.733889 0 0 0 -33.6292,29.99358 c 0,18.56745 12.9842,30.25326 34.5381,30.25326 a 29.863731,29.863731 0 0 0 33.6291,-30.25326 c 0,-18.69729 -12.9842,-29.99358 -34.538,-29.99358 m 140.3595,75.43839 c -54.5338,0 -90.8896,34.66789 -90.8896,86.08545 0,51.41751 34.7977,86.86451 89.721,86.86451 54.9233,0 90.8896,-34.0187 90.8896,-86.47499 0,-52.45629 -36.4857,-86.47497 -89.721,-86.47497 m -1.2984,123.9994 a 35.317108,35.317108 0 0 1 -35.8365,-37.91395 35.966319,35.966319 0 1 1 71.8028,0 35.836477,35.836477 0 0 1 -35.9663,37.91395"
         id="path2"
         style="fill:#ffffff;stroke-width:12.9842" /></g></g></svg>
