<?xml version="1.0" encoding="utf-8"?>
<!-- Generator: Adobe Adobe Illustrator 29.2.0, SVG Export Plug-In . SVG Version: 6.00 Build 0)  -->
<svg version="1.1" xmlns="http://www.w3.org/2000/svg" xmlns:xlink="http://www.w3.org/1999/xlink" x="0px" y="0px" width="448px"
   height="299px" viewBox="0 0 448 299" style="enable-background:new 0 0 448 299;" xml:space="preserve">
<style type="text/css">
  .st0{fill:#FF791A;stroke:#FF791A;stroke-miterlimit:10;}
  .st1{fill:#FF791A;}
</style>
<g id="Layer_1">
  <g id="Layer_2">
  </g>
  <path class="st0" d="M249.46,182.5c0,0-11,17.2-14.1,22.21c-2.94,4.74-9.82,13.59-13.25,17.93c-5.39,6.81-17.32,18.06-23.86,23.78
    c-5.42,4.74-17.13,13.96-23.04,18.3c-4.33,3.17-17.49,12.22-17.49,12.22l-29.1,17.48c0,0-41.28-24.64-53.04-33.19
    c-9.81-7.13-27.93-22.86-35.98-31.76c-5.98-6.62-15.95-20.81-20.43-29.25c-4.08-7.68-9.46-17.99-10.82-27.22
    C3.54,140.39,6.12,33.65,6.12,33.65L126.47,5.59l123.11,29.04l-0.13,92.39h-10.71l0.36-85.16L127.55,17.27L53.62,33.81l-36.88,9.93
    c0,0-4.71,95.02,1.54,125.86c1.51,7.46,8.67,21.24,12.4,27.82c3.54,6.26,12.03,17.64,16.66,23.02c4.35,5.05,9.11,9.63,19.15,18.52
    c6.73,5.96,14.28,11.31,18.26,14.24c5.31,3.92,17.63,12.1,27.52,18.27c8.26,5.16,16.25,9.52,16.25,9.52l20.84-12.02l23.73-16.11
    c0,0,13.93-10.08,18.35-13.88c3.98-3.43,15.26-14.95,15.26-14.95s12.68-13.38,16.24-18.3c4.22-5.84,15.68-23.24,15.68-23.24H249.46
    z"/>
  <path class="st0" d="M33.05,121.44c0.81-2.13,2.68-6.31,3.77-8.18c1.14-1.96,4.86-7.13,4.86-7.13s4.97-6.48,6.44-7.99
    c3.19-3.25,7.52-7.02,9.8-8.69c4.88-3.58,10.76-7.02,13.01-8.28c2.64-1.48,5.56-2.42,7.08-3.09c4.03-1.77,16.35-4.71,16.35-4.71
    s-17.17-3.72-21.6-5.39c-4.61-1.74-9.84-4.57-11.72-5.82c-3.69-2.44-7.12-5.36-7.99-6.1c-0.56-0.47-5.84-6.91-5.84-6.91
    s48.29,3.18,63.99,4.14c8.83,0.54,35.4,2.31,35.4,2.31s15.9,1.2,20.77,2.38c4.65,1.14,12.82,3.84,16.98,5.94
    c2.91,1.47,9.17,5.9,11.33,8.04c0.94,0.93,2.77,3.15,3.95,5.13c1.55,2.6,3.26,6.62,3.26,6.62s-10.31,1.09-13.76,0.96
    c-4.11-0.15-12-1.74-16.31-2.12c-3.58-0.32-12.61-0.63-16.86-0.78c-3.71-0.13-14.82-0.38-14.82-0.38l15.91,6.72
    c0,0,1.47,3.8,2.05,5.05c0.59,1.26,2.11,3.54,3.21,4.41c1.19,0.94,3.34,1.83,5.77,1.93c3.06,0.12,4.33-0.48,5.35-1.72
    c0.97-1.17,1.55-4.32,2.63-5.39c0.63-0.62,1.9,0.14,2.77,0.48c0.68,0.27,1.68,0.89,2.34,0.99c5.22,0.76,12.07-2.72,20.58-4.34
    c5.06-0.97,8.24-0.78,10.44-0.37c2.36,0.45,5.31,1.85,7.38,3.25c1.9,1.28,6.35,6.02,6.35,6.02s2.75,5.07,3.25,6.49
    c0.55,1.54,1.27,5.98,0.76,8.75c-0.49,2.67-0.77,3.69-1.63,6.09c-1.22,3.39-4.08,6.81-4.08,6.81s-2.74-4.9-6.57-7.78
    c-3.96-2.98-9.02-3.95-8.8-4.1c0,0-8.79-1.05-11.84-0.89c-3.92,0.21-16.07,2.37-16.07,2.37s-11.67,3.26-15.34,5
    c-3.2,1.52-9.7,5.69-12.65,7.81c-3.49,2.51-10.27,7.87-13,10.85c-2.65,2.9-7.56,8.58-9.34,11.79c-1.51,2.74-3.12,8.42-4.06,11.49
    c-0.78,2.56-1.46,12.11-1.46,12.11s0.25,7.91,0.65,10.36c0.44,2.69,2,7.28,3.17,9.64c1.28,2.57,4.63,7.52,6.58,9.62
    c1.75,1.88,7.62,6.89,7.62,6.89s5.33,4.45,7.07,5.52c1.28,0.79,6.15,3.93,8.32,5.14c2.38,1.33,9.9,4.88,9.9,4.88l9.23,4.47
    c0,0-16.93-2.16-22.45-3.78c-3.96-1.16-11.55-4.38-15.27-6.14c-2.25-1.06-6.67-3.39-8.73-4.77c-3.33-2.23-9.35-7.6-12.07-10.53
    c-2.36-2.54-6.32-8.46-8.01-11.32c-1.67-2.82-6.37-13.55-6.37-13.55s-1.27,3.61-1.64,6.68c-0.22,1.82-0.12,3.61-0.11,3.97
    c0.04,2.13,0.49,6.24,0.93,9.81c0.22,1.76,1.54,8.13,2.34,10.7c0.63,2.03,3.08,7.81,3.08,7.81s-4.61-3.06-6.07-4.17
    c-1.21-0.92-4.6-3.94-4.6-3.94s-5.98-6.42-7.72-8.78c-1.53-2.07-4.1-6.85-5.2-8.99c-1.08-2.09-3.3-8.21-3.3-8.21
    s-1.87-9.66-1.82-12.86c0.03-2.32-0.04-7.76,0.49-11.87c0.6-4.64,1.5-8.57,1.5-8.57s2.18-6.93,3.23-9.35
    c1.92-4.42,8.96-17.27,8.96-17.27s-7.32,5.54-9.41,7.53c-1.71,1.62-5.13,4.73-7.86,7.67s-4.76,5.69-4.76,5.69s-5.61,7.18-7.04,9.86
    c-1.58,2.98-5.23,8.49-7.67,13.94c-2.44,5.44-4.09,14.63-4.09,14.63s-2.02-4.16-2.61-5.56c-0.53-1.26-1.32-3.77-1.64-5.1
    c-0.93-3.84-1.45-15.73-1.45-15.73s0.98-9.15,1.66-12.06c0.64-2.77,3.61-10.68,3.61-10.68s4.62-9.59,6.68-12.58
    c1.79-2.6,8.73-9.79,8.73-9.79s5.37-4.81,7.33-6.34c1.58-1.23,7.74-5.81,7.74-5.81s-6.78,1.52-8.94,2.19
    c-2.42,0.74-9.38,3.46-9.38,3.46s-6.45,3-8.54,4.08c-4.54,2.35-9.13,5.69-9.13,5.69l-17.79,13.01c0,0,1.15-4.48,1.34-5.15
    c0,0,0.24-0.99,0.55-1.86C32.46,122.76,32.86,121.95,33.05,121.44z"/>
  <ellipse class="st0" cx="224.77" cy="134.31" rx="5.34" ry="4.46"/>
  <g>
    <path class="st1" d="M161.17,129.85h13.27l8.04,21.51c0.94,2.89,1.79,5.85,2.73,8.97h0.31c0.94-3.12,1.72-6.08,2.73-8.97
      l7.72-21.51h13.27v49.48h-11v-17.18c0-4.86,1.01-13.3,1.64-18.17h-0.31l-4.21,12.92l-6.87,18.24h-6.87l-6.79-18.24l-4.06-12.92
      h-0.31c0.62,4.86,1.64,13.3,1.64,18.17v17.18h-10.92V129.85z"/>
    <path class="st1" d="M218.68,142.83h12.17v36.5h-12.17V142.83z"/>
    <path class="st1" d="M238.29,130.03l11.67-0.18v19.07l17.03-0.04v-18.85h12.1v49.48h-12.1v-20.37h-16.78v20.37h-11.92V130.03z"/>
    <path class="st1" d="M301.51,130.03h14.51l15.84,49.48h-12.8l-2.97-11.4h-15.06l-2.97,11.4h-12.41L301.51,130.03z M303.38,158.99
      h10.38l-1.09-4.26c-1.33-4.86-2.65-10.72-3.98-15.88h-0.31c-1.25,5.17-2.57,11.02-3.9,15.88L303.38,158.99z"/>
    <path class="st1" d="M331.86,130.03h12.33l3.2,22.65c0.7,5.24,1.33,10.41,1.87,15.81h0.31c0.94-5.4,1.95-10.64,2.96-15.81
      l5.31-22.65h10.46l5.15,22.65c1.01,5.02,2.03,10.34,2.97,15.81h0.31c0.55-5.47,1.25-10.72,1.87-15.81l3.43-22.65h11.55
      l-8.97,49.48h-15.37l-4.6-21.66c-0.86-3.88-1.4-7.75-1.87-11.7h-0.31c-0.55,3.95-1.09,7.83-1.95,11.7l-4.37,21.66h-15.14
      L331.86,130.03z"/>
    <path class="st1" d="M400.9,132.12h12.17v19.61h0.23l14.44-19.61h13.27l-15.29,19.84l18.18,29.64h-13.26l-12.02-20.29l-5.54,7.3
      v13H400.9V132.12z"/>
  </g>
</g>
<g id="Layer_4">
</g>
<g id="Layer_3">
</g>
</svg>
